<svg width="1038" height="224" viewBox="0 0 1038 224" fill="none" xmlns="http://www.w3.org/2000/svg">
<path d="M64.6415 220.773V222.773H66.1269L66.5562 221.351L64.6415 220.773ZM0.934127 220.773L-0.965086 220.147L-1.83216 222.773H0.934127V220.773ZM72.7111 3.31889V1.31889H71.2651L70.8119 2.692L72.7111 3.31889ZM153.407 3.31889L155.306 2.692L154.853 1.31889H153.407V3.31889ZM225.184 220.773V222.773H227.95L227.083 220.147L225.184 220.773ZM161.477 220.773L159.562 221.351L159.991 222.773H161.477V220.773ZM113.909 63.2038L115.823 62.6258L115.394 61.2038H113.909V63.2038ZM112.21 63.2038V61.2038H110.724L110.295 62.6258L112.21 63.2038ZM52.7495 134.981V132.981H50.7495V134.981H52.7495ZM172.519 134.981H174.519V132.981H172.519V134.981ZM172.519 179.151V181.151H174.519V179.151H172.519ZM52.7495 179.151H50.7495V181.151H52.7495V179.151ZM64.6415 218.773H0.934127V222.773H64.6415V218.773ZM2.83334 221.4L74.6103 3.94577L70.8119 2.692L-0.965086 220.147L2.83334 221.4ZM72.7111 5.31889H153.407V1.31889H72.7111V5.31889ZM151.508 3.94577L223.285 221.4L227.083 220.147L155.306 2.692L151.508 3.94577ZM225.184 218.773H161.477V222.773H225.184V218.773ZM163.391 220.195L115.823 62.6258L111.994 63.7818L159.562 221.351L163.391 220.195ZM113.909 61.2038H112.21V65.2038H113.909V61.2038ZM110.295 62.6258L62.7269 220.195L66.5562 221.351L114.124 63.7818L110.295 62.6258ZM52.7495 136.981H172.519V132.981H52.7495V136.981ZM170.519 134.981V179.151H174.519V134.981H170.519ZM172.519 177.151H52.7495V181.151H172.519V177.151ZM54.7495 179.151V134.981H50.7495V179.151H54.7495ZM246.128 220.773H244.128V222.773H246.128V220.773ZM246.128 3.31889V1.31889H244.128V3.31889H246.128ZM382.143 10.0082L381.406 11.8675L381.41 11.8691L382.143 10.0082ZM407.732 28.908L406.097 30.0597L406.104 30.0692L407.732 28.908ZM411.13 79.5554L409.369 78.6083L409.365 78.6157L409.361 78.6231L411.13 79.5554ZM396.477 96.1193L397.621 97.7604L397.627 97.7561L397.633 97.7517L396.477 96.1193ZM374.392 105.251L373.997 103.29L372.392 103.614V105.251H374.392ZM374.392 107.374H372.392V109.3L374.316 109.373L374.392 107.374ZM399.875 114.488L398.879 116.223L398.892 116.23L399.875 114.488ZM418.138 132.433L416.417 133.452L416.421 133.459L418.138 132.433ZM415.59 190.937L413.929 189.822L413.924 189.831L415.59 190.937ZM389.257 212.81L388.413 210.997L389.257 212.81ZM305.163 173.63H303.163V175.63H305.163V173.63ZM355.068 168.109L356.26 169.714L356.268 169.709L356.275 169.703L355.068 168.109ZM349.015 130.521L348.22 132.356L348.231 132.361L349.015 130.521ZM305.163 127.761V125.761H303.163V127.761H305.163ZM305.163 91.2351H303.163V93.2351H305.163V91.2351ZM343.069 88.793L343.829 90.643L343.069 88.793ZM352.307 81.7852L350.689 80.6088L350.685 80.6156L352.307 81.7852ZM348.484 55.0281L347.284 56.6281L347.292 56.6337L347.3 56.6394L348.484 55.0281ZM305.163 49.6129V47.6129H303.163V49.6129H305.163ZM248.128 220.773V3.31889H244.128V220.773H248.128ZM246.128 5.31889H340.415V1.31889H246.128V5.31889ZM340.415 5.31889C356.813 5.31889 370.455 7.52829 381.406 11.8675L382.88 8.14881C371.321 3.569 357.144 1.31889 340.415 1.31889V5.31889ZM381.41 11.8691C392.454 16.2175 400.634 22.3036 406.097 30.0597L409.367 27.7563C403.363 19.2316 394.484 12.7178 382.876 8.14723L381.41 11.8691ZM406.104 30.0692C411.642 37.8353 414.439 47.0106 414.439 57.6825H418.439C418.439 46.2692 415.432 36.2615 409.361 27.7469L406.104 30.0692ZM414.439 57.6825C414.439 65.3747 412.74 72.3367 409.369 78.6083L412.892 80.5025C416.598 73.6079 418.439 65.988 418.439 57.6825H414.439ZM409.361 78.6231C406.044 84.9173 401.375 90.2022 395.322 94.4869L397.633 97.7517C404.18 93.1174 409.279 87.3597 412.9 80.4877L409.361 78.6231ZM395.334 94.4783C389.284 98.6927 382.184 101.639 373.997 103.29L374.788 107.211C383.448 105.465 391.07 102.323 397.621 97.7604L395.334 94.4783ZM372.392 105.251V107.374H376.392V105.251H372.392ZM374.316 109.373C383.357 109.715 391.532 112.005 398.879 116.223L400.871 112.754C392.928 108.194 384.115 105.741 374.468 105.376L374.316 109.373ZM398.892 116.23C406.228 120.373 412.063 126.104 416.417 133.452L419.858 131.413C415.152 123.471 408.812 117.239 400.859 112.747L398.892 116.23ZM416.421 133.459C420.738 140.675 422.933 149.227 422.933 159.19H426.933C426.933 148.624 424.599 139.338 419.854 131.406L416.421 133.459ZM422.933 159.19C422.933 170.711 419.922 180.9 413.929 189.822L417.25 192.052C423.715 182.428 426.933 171.452 426.933 159.19H422.933ZM413.924 189.831C407.994 198.759 399.52 205.823 388.413 210.997L390.102 214.623C401.788 209.179 410.868 201.661 417.256 192.044L413.924 189.831ZM388.413 210.997C377.339 216.156 364.05 218.773 348.484 218.773V222.773C364.489 222.773 378.382 220.082 390.102 214.623L388.413 210.997ZM348.484 218.773H246.128V222.773H348.484V218.773ZM305.163 175.63H332.77V171.63H305.163V175.63ZM332.77 175.63C342.869 175.63 350.808 173.765 356.26 169.714L353.875 166.503C349.418 169.814 342.491 171.63 332.77 171.63V175.63ZM356.275 169.703C361.819 165.505 364.5 159.339 364.5 151.545H360.5C360.5 158.332 358.226 163.209 353.86 166.514L356.275 169.703ZM364.5 151.545C364.5 146.137 363.257 141.416 360.665 137.489L357.327 139.693C359.407 142.844 360.5 146.76 360.5 151.545H364.5ZM360.665 137.489C358.09 133.588 354.438 130.659 349.8 128.681L348.231 132.361C352.228 134.065 355.23 136.515 357.327 139.693L360.665 137.489ZM349.811 128.686C345.249 126.71 339.831 125.761 333.619 125.761V129.761C339.441 129.761 344.287 130.652 348.22 132.356L349.811 128.686ZM333.619 125.761H305.163V129.761H333.619V125.761ZM303.163 127.761V173.63H307.163V127.761H303.163ZM305.163 93.2351H329.372V89.2351H305.163V93.2351ZM329.372 93.2351C334.748 93.2351 339.58 92.3882 343.829 90.643L342.31 86.9429C338.631 88.4539 334.331 89.2351 329.372 89.2351V93.2351ZM343.829 90.643C348.088 88.8937 351.487 86.3426 353.929 82.9548L350.685 80.6156C348.738 83.3153 345.978 85.4361 342.31 86.9429L343.829 90.643ZM353.924 82.9615C356.476 79.4531 357.705 75.237 357.705 70.424H353.705C353.705 74.53 352.668 77.8881 350.689 80.6088L353.924 82.9615ZM357.705 70.424C357.705 63.155 355.065 57.3842 349.669 53.4168L347.3 56.6394C351.531 59.7505 353.705 64.2436 353.705 70.424H357.705ZM349.684 53.4281C344.453 49.5047 337.917 47.6129 330.222 47.6129V51.6129C337.25 51.6129 342.889 53.3313 347.284 56.6281L349.684 53.4281ZM330.222 47.6129H305.163V51.6129H330.222V47.6129ZM303.163 49.6129V91.2351H307.163V49.6129H303.163ZM642.388 173.311L644.127 174.3L644.128 174.297L642.388 173.311ZM604.27 211.005L605.208 212.771L605.214 212.768L604.27 211.005ZM497.029 210.899L496.076 212.657L496.085 212.662L497.029 210.899ZM459.017 173.099L457.273 174.079L457.278 174.087L459.017 173.099ZM459.017 50.8871L457.276 49.902L457.275 49.9044L459.017 50.8871ZM497.029 13.1935L497.97 14.9582L497.973 14.9567L497.029 13.1935ZM604.27 13.1935L603.326 14.9567L603.332 14.96L604.27 13.1935ZM642.388 50.8871L640.647 51.8722L640.649 51.8754L642.388 50.8871ZM590.573 79.1307L588.702 79.8378L588.705 79.8467L588.708 79.8556L590.573 79.1307ZM575.389 58.7443L574.24 60.3811L574.25 60.3881L574.26 60.3949L575.389 58.7443ZM526.016 58.7443L527.153 60.3893L527.157 60.3868L526.016 58.7443ZM510.832 79.1307L508.966 78.4108L508.963 78.4187L510.832 79.1307ZM510.832 145.068L508.961 145.775L508.965 145.784L508.968 145.793L510.832 145.068ZM526.016 165.454L524.866 167.091L524.876 167.098L524.886 167.105L526.016 165.454ZM575.389 165.454L576.526 167.099L576.53 167.097L575.389 165.454ZM590.573 145.068L588.707 144.348L588.704 144.356L590.573 145.068ZM654.51 112.046C654.51 136 649.852 156.062 640.647 172.326L644.128 174.297C653.753 157.291 658.51 136.51 658.51 112.046H654.51ZM640.649 172.323C631.411 188.576 618.974 200.864 603.326 209.242L605.214 212.768C621.561 204.016 634.535 191.175 644.127 174.3L640.649 172.323ZM603.332 209.239C587.647 217.566 570.136 221.746 550.755 221.746V225.746C570.732 225.746 588.897 221.432 605.208 212.771L603.332 209.239ZM550.755 221.746C531.234 221.746 513.654 217.531 497.973 209.136L496.085 212.662C512.399 221.397 530.637 225.746 550.755 225.746V221.746ZM497.982 209.141C482.401 200.692 469.995 188.367 460.756 172.111L457.278 174.087C466.867 190.959 479.803 203.833 496.076 212.657L497.982 209.141ZM460.761 172.12C451.623 155.852 447.001 135.858 447.001 112.046H443.001C443.001 136.368 447.723 157.076 457.273 174.079L460.761 172.12ZM447.001 112.046C447.001 88.0895 451.624 68.0626 460.759 51.8697L457.275 49.9044C447.722 66.8394 443.001 87.5852 443.001 112.046H447.001ZM460.757 51.8722C469.996 35.5476 482.398 23.2631 497.97 14.9582L496.088 11.4288C479.806 20.1126 466.866 32.9572 457.276 49.902L460.757 51.8722ZM497.973 14.9567C513.654 6.56112 531.234 2.34587 550.755 2.34587V-1.65413C530.637 -1.65413 512.399 2.69574 496.085 11.4303L497.973 14.9567ZM550.755 2.34587C570.133 2.34587 587.642 6.56 603.326 14.9567L605.214 11.4303C588.901 2.69685 570.735 -1.65413 550.755 -1.65413V2.34587ZM603.332 14.96C618.974 23.2655 631.41 35.5498 640.647 51.8722L644.128 49.902C634.537 32.9549 621.561 20.1102 605.208 11.4271L603.332 14.96ZM640.649 51.8754C649.852 68.067 654.51 88.0918 654.51 112.046H658.51C658.51 87.5829 653.753 66.835 644.127 49.8988L640.649 51.8754ZM597.775 112.046C597.775 98.8573 596.021 87.6229 592.437 78.4058L588.708 79.8556C592.061 88.4765 593.775 99.1858 593.775 112.046H597.775ZM592.443 78.4236C588.928 69.1213 583.638 61.9652 576.518 57.0937L574.26 60.3949C580.589 64.7256 585.422 71.1604 588.702 79.8378L592.443 78.4236ZM576.538 57.1075C569.485 52.1549 560.851 49.7365 550.755 49.7365V53.7365C560.197 53.7365 567.986 55.99 574.24 60.3811L576.538 57.1075ZM550.755 49.7365C540.659 49.7365 531.995 52.1552 524.875 57.1018L527.157 60.3868C533.486 55.9897 541.314 53.7365 550.755 53.7365V49.7365ZM524.878 57.0993C517.835 61.9694 512.551 69.1194 508.966 78.4108L512.698 79.8506C516.05 71.1623 520.888 64.7214 527.153 60.3893L524.878 57.0993ZM508.963 78.4187C505.454 87.6314 503.736 98.8611 503.736 112.046H507.736C507.736 99.182 509.415 88.468 512.701 79.8427L508.963 78.4187ZM503.736 112.046C503.736 125.232 505.454 136.495 508.961 145.775L512.703 144.361C509.415 135.661 507.736 124.91 507.736 112.046H503.736ZM508.968 145.793C512.554 155.013 517.836 162.155 524.866 167.091L527.165 163.817C520.888 159.41 516.047 152.961 512.696 144.343L508.968 145.793ZM524.886 167.105C532.005 171.976 540.665 174.356 550.755 174.356V170.356C541.308 170.356 533.476 168.135 527.145 163.804L524.886 167.105ZM550.755 174.356C560.845 174.356 569.474 171.976 576.526 167.099L574.251 163.809C567.996 168.135 560.203 170.356 550.755 170.356V174.356ZM576.53 167.097C583.638 162.159 588.925 155.011 592.442 145.78L588.704 144.356C585.425 152.962 580.59 159.406 574.248 163.812L576.53 167.097ZM592.438 145.788C596.021 136.503 597.775 125.236 597.775 112.046H593.775C593.775 124.906 592.061 135.653 588.707 144.348L592.438 145.788ZM812.513 3.31889V1.31889H810.513V3.31889H812.513ZM871.549 3.31889H873.549V1.31889H871.549V3.31889ZM859.657 185.628L857.984 184.532L857.982 184.535L859.657 185.628ZM826.741 213.553L827.58 215.369L827.588 215.365L826.741 213.553ZM728.419 213.553L727.573 215.365L727.58 215.369L728.419 213.553ZM695.504 185.628L693.822 186.71L693.829 186.722L695.504 185.628ZM683.824 3.31889V1.31889H681.824V3.31889H683.824ZM742.86 3.31889H744.86V1.31889H742.86V3.31889ZM747.319 155.58L745.574 156.557L745.58 156.567L747.319 155.58ZM759.636 167.896L758.649 169.636L758.659 169.641L759.636 167.896ZM795.737 167.896L796.724 169.636L795.737 167.896ZM808.054 155.58L809.793 156.567L809.799 156.557L808.054 155.58ZM812.513 5.31889H871.549V1.31889H812.513V5.31889ZM869.549 3.31889V142.626H873.549V3.31889H869.549ZM869.549 142.626C869.549 158.858 865.669 172.799 857.984 184.532L861.33 186.724C869.501 174.249 873.549 159.521 873.549 142.626H869.549ZM857.982 184.535C850.345 196.231 839.672 205.303 825.894 211.741L827.588 215.365C841.983 208.638 853.254 199.093 861.331 186.722L857.982 184.535ZM825.902 211.738C812.126 218.107 796.07 221.322 777.686 221.322V225.322C796.536 225.322 813.184 222.024 827.58 215.369L825.902 211.738ZM777.686 221.322C759.159 221.322 743.033 218.106 729.259 211.738L727.58 215.369C741.979 222.025 758.698 225.322 777.686 225.322V221.322ZM729.266 211.741C715.489 205.303 704.815 196.231 697.179 184.535L693.829 186.722C701.907 199.093 713.177 208.638 727.573 215.365L729.266 211.741ZM697.186 184.546C689.637 172.811 685.824 158.865 685.824 142.626H681.824C681.824 159.514 685.798 174.237 693.822 186.71L697.186 184.546ZM685.824 142.626V3.31889H681.824V142.626H685.824ZM683.824 5.31889H742.86V1.31889H683.824V5.31889ZM740.86 3.31889V137.529H744.86V3.31889H740.86ZM740.86 137.529C740.86 144.559 742.417 150.919 745.574 156.557L749.064 154.602C746.276 149.623 744.86 143.948 744.86 137.529H740.86ZM745.58 156.567C748.731 162.119 753.097 166.484 758.649 169.636L760.623 166.157C755.699 163.362 751.853 159.516 749.059 154.592L745.58 156.567ZM758.659 169.641C764.297 172.799 770.656 174.356 777.686 174.356V170.356C771.267 170.356 765.593 168.94 760.613 166.151L758.659 169.641ZM777.686 174.356C784.783 174.356 791.148 172.801 796.724 169.636L794.75 166.157C789.849 168.938 784.181 170.356 777.686 170.356V174.356ZM796.724 169.636C802.276 166.484 806.642 162.119 809.793 156.567L806.314 154.592C803.519 159.516 799.674 163.362 794.75 166.157L796.724 169.636ZM809.799 156.557C812.956 150.919 814.513 144.559 814.513 137.529H810.513C810.513 143.948 809.097 149.623 806.309 154.602L809.799 156.557ZM814.513 137.529V3.31889H810.513V137.529H814.513ZM893.66 50.8871H891.66V52.8871H893.66V50.8871ZM893.66 3.31889V1.31889H891.66V3.31889H893.66ZM1082.66 3.31889H1084.66V1.31889H1082.66V3.31889ZM1082.66 50.8871V52.8871H1084.66V50.8871H1082.66ZM1017.25 50.8871V48.8871H1015.25V50.8871H1017.25ZM1017.25 220.773V222.773H1019.25V220.773H1017.25ZM959.067 220.773H957.067V222.773H959.067V220.773ZM959.067 50.8871H961.067V48.8871H959.067V50.8871ZM895.66 50.8871V3.31889H891.66V50.8871H895.66ZM893.66 5.31889H1082.66V1.31889H893.66V5.31889ZM1080.66 3.31889V50.8871H1084.66V3.31889H1080.66ZM1082.66 48.8871H1017.25V52.8871H1082.66V48.8871ZM1015.25 50.8871V220.773H1019.25V50.8871H1015.25ZM1017.25 218.773H959.067V222.773H1017.25V218.773ZM961.067 220.773V50.8871H957.067V220.773H961.067ZM959.067 48.8871H893.66V52.8871H959.067V48.8871Z" fill="#E6E6E6"/>
</svg>
