<svg width="35" height="34" viewBox="0 0 35 34" fill="none" xmlns="http://www.w3.org/2000/svg">
<path d="M24.7612 3.23778C26.6866 3.24332 28.5314 3.98175 29.8928 5.29182C31.2543 6.60189 32.0216 8.37714 32.0274 10.2298V24.2125C32.0216 26.0652 31.2543 27.8404 29.8928 29.1505C28.5314 30.4606 26.6866 31.199 24.7612 31.2045H10.2304C8.30507 31.199 6.46023 30.4606 5.0988 29.1505C3.73737 27.8404 2.96998 26.0652 2.96423 24.2125V10.2298C2.96998 8.37714 3.73737 6.60189 5.0988 5.29182C6.46023 3.98175 8.30507 3.24332 10.2304 3.23778H24.7612ZM24.7612 0.441406H10.2304C4.63559 0.441406 0.0582275 4.84609 0.0582275 10.2298V24.2125C0.0582275 29.5962 4.63559 34.0009 10.2304 34.0009H24.7612C30.356 34.0009 34.9334 29.5962 34.9334 24.2125V10.2298C34.9334 4.84609 30.356 0.441406 24.7612 0.441406Z" fill="white"/>
<path d="M26.9407 10.2281C26.5096 10.2281 26.0882 10.1051 25.7298 9.87466C25.3713 9.64418 25.0919 9.3166 24.927 8.93334C24.762 8.55008 24.7188 8.12835 24.8029 7.72148C24.887 7.31461 25.0946 6.94087 25.3995 6.64754C25.7043 6.3542 26.0927 6.15444 26.5155 6.07351C26.9383 5.99258 27.3766 6.03411 27.7749 6.19286C28.1732 6.35162 28.5136 6.62045 28.7531 6.96538C28.9926 7.31031 29.1204 7.71583 29.1204 8.13067C29.1211 8.40628 29.0651 8.6793 28.9558 8.93404C28.8465 9.18879 28.6859 9.42024 28.4834 9.61513C28.2809 9.81002 28.0403 9.96449 27.7756 10.0697C27.5109 10.1749 27.2272 10.2287 26.9407 10.2281ZM17.4957 11.626C18.6453 11.626 19.7692 11.954 20.7251 12.5686C21.681 13.1833 22.426 14.0568 22.866 15.0789C23.3059 16.101 23.421 17.2257 23.1967 18.3107C22.9725 19.3957 22.4188 20.3924 21.6059 21.1747C20.793 21.9569 19.7572 22.4897 18.6297 22.7055C17.5021 22.9213 16.3333 22.8105 15.2712 22.3872C14.209 21.9638 13.3012 21.2469 12.6625 20.327C12.0238 19.4072 11.6829 18.3257 11.6829 17.2195C11.6845 15.7365 12.2975 14.3146 13.3872 13.266C14.477 12.2174 15.9545 11.6275 17.4957 11.626ZM17.4957 8.82958C15.7712 8.82958 14.0855 9.32164 12.6518 10.2435C11.218 11.1654 10.1004 12.4757 9.44054 14.0088C8.78063 15.5418 8.60797 17.2288 8.94439 18.8562C9.28081 20.4837 10.1112 21.9787 11.3305 23.152C12.5499 24.3253 14.1034 25.1244 15.7947 25.4481C17.486 25.7719 19.239 25.6057 20.8322 24.9707C22.4253 24.3357 23.787 23.2603 24.7451 21.8806C25.7031 20.5009 26.2144 18.8788 26.2144 17.2195C26.2144 14.9943 25.2959 12.8603 23.6608 11.2869C22.0257 9.71351 19.808 8.82958 17.4957 8.82958Z" fill="white"/>
</svg>
