<svg width="260" height="39" viewBox="0 0 260 39" fill="none" xmlns="http://www.w3.org/2000/svg">
<path d="M15.239 0.899997C17.1117 0.899997 18.843 1.41233 20.433 2.437C22.023 3.42633 23.295 4.78667 24.249 6.518C25.203 8.24933 25.68 10.1927 25.68 12.348C25.68 14.5033 25.203 16.4643 24.249 18.231C23.295 19.9623 22.023 21.358 20.433 22.418C18.843 23.4427 17.1117 23.955 15.239 23.955H5.01L5.434 23.107V35.297C5.434 36.0743 5.18667 36.728 4.692 37.258C4.23267 37.7527 3.61433 38 2.837 38C2.095 38 1.47667 37.7527 0.982 37.258C0.522667 36.728 0.293 36.0743 0.293 35.297V3.603C0.293 2.82567 0.558 2.18967 1.088 1.695C1.618 1.165 2.254 0.899997 2.996 0.899997H15.239ZM15.239 18.867C16.1577 18.867 16.988 18.5667 17.73 17.966C18.5073 17.3653 19.1257 16.5703 19.585 15.581C20.0797 14.5917 20.327 13.514 20.327 12.348C20.327 11.182 20.0797 10.122 19.585 9.168C19.1257 8.214 18.5073 7.45433 17.73 6.889C16.988 6.28833 16.1577 5.988 15.239 5.988H4.904L5.434 5.193V19.556L4.957 18.867H15.239ZM48.5541 35.297C48.5187 36.0743 48.2184 36.728 47.6531 37.258C47.1231 37.7527 46.4871 38 45.7451 38C44.9324 38 44.2611 37.7527 43.7311 37.258C43.2364 36.728 42.9891 36.0743 42.9891 35.297V3.603C42.9891 2.82567 43.2541 2.18967 43.7841 1.695C44.3141 1.165 45.0031 0.899997 45.8511 0.899997C46.5577 0.899997 47.1761 1.165 47.7061 1.695C48.2714 2.18967 48.5541 2.82567 48.5541 3.603V35.297ZM88.4949 32.806C89.2369 32.806 89.8553 33.0533 90.3499 33.548C90.8799 34.0427 91.1449 34.661 91.1449 35.403C91.1449 36.145 90.8799 36.7633 90.3499 37.258C89.8553 37.7527 89.2369 38 88.4949 38H70.6869C69.9096 38 69.2559 37.7527 68.7259 37.258C68.2313 36.728 67.9839 36.0743 67.9839 35.297V3.603C67.9839 2.82567 68.2489 2.18967 68.7789 1.695C69.3089 1.165 69.9979 0.899997 70.8459 0.899997C71.5526 0.899997 72.1709 1.165 72.7009 1.695C73.2663 2.18967 73.5489 2.82567 73.5489 3.603V33.707L72.4359 32.806H88.4949ZM121.342 7.79L109.417 36.41C109.205 36.9753 108.887 37.417 108.463 37.735C108.039 38.053 107.562 38.212 107.032 38.212C106.255 38.212 105.672 38 105.283 37.576C104.894 37.1167 104.682 36.5513 104.647 35.88C104.647 35.6327 104.7 35.35 104.806 35.032L118.268 2.49C118.515 1.88933 118.869 1.43 119.328 1.112C119.823 0.793998 120.353 0.652664 120.918 0.687997C121.448 0.687997 121.943 0.846997 122.402 1.165C122.861 1.483 123.197 1.92466 123.409 2.49L136.712 34.555C136.853 34.9083 136.924 35.2617 136.924 35.615C136.924 36.3923 136.659 37.0283 136.129 37.523C135.634 37.9823 135.069 38.212 134.433 38.212C133.903 38.212 133.408 38.053 132.949 37.735C132.525 37.3817 132.207 36.94 131.995 36.41L119.964 7.949L121.342 7.79ZM111.537 28.884L113.922 23.796H128.921L129.822 28.884H111.537ZM162.406 38C161.558 38 160.869 37.7527 160.339 37.258C159.845 36.728 159.597 36.0743 159.597 35.297V3.55H165.268V35.297C165.268 36.0743 164.986 36.728 164.42 37.258C163.89 37.7527 163.219 38 162.406 38ZM150.375 5.988C149.633 5.988 148.997 5.75833 148.467 5.299C147.937 4.80433 147.672 4.16833 147.672 3.391C147.672 2.649 147.937 2.04833 148.467 1.589C148.997 1.12966 149.633 0.899997 150.375 0.899997H174.49C175.232 0.899997 175.851 1.14733 176.345 1.642C176.875 2.10133 177.14 2.702 177.14 3.444C177.14 4.22133 176.875 4.83966 176.345 5.299C175.851 5.75833 175.232 5.988 174.49 5.988H150.375ZM196.705 0.899997H215.043C215.785 0.899997 216.403 1.14733 216.898 1.642C217.428 2.13666 217.693 2.755 217.693 3.497C217.693 4.239 217.428 4.83966 216.898 5.299C216.403 5.75833 215.785 5.988 215.043 5.988H199.037L199.567 5.087V16.959L199.09 16.429H212.658C213.4 16.429 214.018 16.6763 214.513 17.171C215.043 17.6657 215.308 18.3017 215.308 19.079C215.308 19.821 215.043 20.4217 214.513 20.881C214.018 21.3403 213.4 21.57 212.658 21.57H199.196L199.567 21.093V33.336L199.196 32.912H215.043C215.785 32.912 216.403 33.177 216.898 33.707C217.428 34.2017 217.693 34.7847 217.693 35.456C217.693 36.198 217.428 36.8163 216.898 37.311C216.403 37.7703 215.785 38 215.043 38H196.705C195.963 38 195.327 37.7527 194.797 37.258C194.267 36.728 194.002 36.0743 194.002 35.297V3.603C194.002 2.82567 194.267 2.18967 194.797 1.695C195.327 1.165 195.963 0.899997 196.705 0.899997ZM246.54 38.53C243.996 38.53 241.735 38.1767 239.756 37.47C237.777 36.7633 235.887 35.5973 234.085 33.972C233.696 33.6893 233.396 33.3537 233.184 32.965C233.007 32.541 232.919 32.117 232.919 31.693C232.919 31.0217 233.166 30.421 233.661 29.891C234.156 29.361 234.774 29.096 235.516 29.096C236.081 29.096 236.611 29.2903 237.106 29.679C238.449 30.9157 239.844 31.852 241.293 32.488C242.777 33.124 244.508 33.442 246.487 33.442C247.9 33.442 249.19 33.2123 250.356 32.753C251.557 32.2937 252.511 31.6753 253.218 30.898C253.925 30.1207 254.278 29.2197 254.278 28.195C254.278 26.923 253.907 25.8807 253.165 25.068C252.458 24.22 251.416 23.531 250.038 23.001C248.695 22.4357 247.07 21.9587 245.162 21.57C243.395 21.252 241.805 20.8103 240.392 20.245C239.014 19.6797 237.83 18.973 236.841 18.125C235.852 17.2417 235.092 16.1993 234.562 14.998C234.032 13.7967 233.767 12.401 233.767 10.811C233.767 8.65567 234.332 6.80067 235.463 5.246C236.594 3.69133 238.131 2.49 240.074 1.642C242.017 0.793998 244.208 0.369998 246.646 0.369998C248.872 0.369998 250.957 0.723331 252.9 1.43C254.843 2.10133 256.416 3.02 257.617 4.186C258.465 4.928 258.889 5.723 258.889 6.571C258.889 7.207 258.624 7.80766 258.094 8.373C257.599 8.903 257.016 9.168 256.345 9.168C255.85 9.168 255.426 9.02666 255.073 8.744C254.508 8.14333 253.748 7.61333 252.794 7.154C251.84 6.65933 250.815 6.253 249.72 5.935C248.66 5.617 247.635 5.458 246.646 5.458C245.056 5.458 243.696 5.68767 242.565 6.147C241.434 6.571 240.569 7.17166 239.968 7.949C239.367 8.691 239.067 9.57433 239.067 10.599C239.067 11.8003 239.403 12.7897 240.074 13.567C240.781 14.3443 241.752 14.9803 242.989 15.475C244.226 15.9343 245.639 16.3583 247.229 16.747C249.172 17.171 250.904 17.648 252.423 18.178C253.978 18.708 255.285 19.397 256.345 20.245C257.405 21.0577 258.218 22.0823 258.783 23.319C259.348 24.5557 259.631 26.0927 259.631 27.93C259.631 30.05 259.03 31.905 257.829 33.495C256.628 35.085 255.038 36.3217 253.059 37.205C251.116 38.0883 248.943 38.53 246.54 38.53Z" fill="#1D2229"/>
</svg>
