<svg width="38" height="31" viewBox="0 0 38 31" fill="none" xmlns="http://www.w3.org/2000/svg">
<path d="M38.0001 3.82465C36.5984 4.43325 35.1154 4.8342 33.5978 5.01485C35.1927 4.08165 36.392 2.59911 36.9709 0.845263C35.4631 1.72631 33.8162 2.3445 32.1009 2.67335C31.3785 1.91685 30.5098 1.31504 29.5474 0.904496C28.5851 0.493949 27.5493 0.283237 26.5029 0.285169C22.2665 0.285169 18.8382 3.66129 18.8382 7.82309C18.8352 8.40198 18.9015 8.97915 19.0359 9.54227C15.9981 9.39996 13.0235 8.62557 10.3023 7.26864C7.58114 5.91172 5.17339 4.00214 3.23308 1.66207C2.55237 2.80879 2.19238 4.11718 2.19072 5.45047C2.19072 8.06424 3.55536 10.3746 5.61596 11.7282C4.39511 11.6992 3.19929 11.3763 2.13 10.7869V10.8803C2.13 14.5364 4.77677 17.5781 8.27986 18.2704C7.62111 18.4459 6.94228 18.5348 6.26053 18.5349C5.77677 18.5357 5.29412 18.4888 4.81959 18.3949C5.79345 21.3898 8.62783 23.5679 11.9853 23.6302C9.25713 25.7312 5.90758 26.8668 2.46318 26.8585C1.85179 26.8576 1.24096 26.8212 0.633789 26.7496C4.13779 28.9855 8.21092 30.1681 12.3684 30.1568C26.4866 30.1568 34.1996 18.6671 34.1996 8.70213C34.1996 8.37541 34.191 8.04869 34.1755 7.72974C35.6725 6.66561 36.9677 5.34321 38.0001 3.82465Z" fill="white"/>
</svg>
